<svg width="1920" height="551" viewBox="0 0 1920 551" fill="none" xmlns="http://www.w3.org/2000/svg">
<g opacity="0.16">
<mask id="mask0_62_2663" style="mask-type:alpha" maskUnits="userSpaceOnUse" x="0" y="0" width="1920" height="551">
<rect width="1920" height="551" fill="url(#paint0_radial_62_2663)"/>
</mask>
<g mask="url(#mask0_62_2663)">
<path d="M1920 140.173L1863.77 140.173" stroke="#C6C6C6" stroke-width="1.50716"/>
<path d="M1856.1 205.346L1856.1 149.118" stroke="#C6C6C6" stroke-width="1.50716"/>
<path d="M1856.1 131.228L1856.1 74.9998" stroke="#C6C6C6" stroke-width="1.50716"/>
<path d="M1843.33 140.173L1787.1 140.173" stroke="#C6C6C6" stroke-width="1.50716"/>
<path d="M1920 287.098L1863.77 287.098" stroke="#C6C6C6" stroke-width="1.50716"/>
<path d="M1856.1 352.271L1856.1 296.043" stroke="#C6C6C6" stroke-width="1.50716"/>
<path d="M1856.1 278.152L1856.1 221.925" stroke="#C6C6C6" stroke-width="1.50716"/>
<path d="M1843.33 287.098L1787.1 287.098" stroke="#C6C6C6" stroke-width="1.50716"/>
<path d="M1920 434.022L1863.77 434.022" stroke="#C6C6C6" stroke-width="1.50716"/>
<path d="M1856.1 499.196L1856.1 442.968" stroke="#C6C6C6" stroke-width="1.50716"/>
<path d="M1856.1 425.078L1856.1 368.85" stroke="#C6C6C6" stroke-width="1.50716"/>
<path d="M1843.33 434.022L1787.1 434.022" stroke="#C6C6C6" stroke-width="1.50716"/>
<path d="M1856.1 572.002L1856.1 515.774" stroke="#C6C6C6" stroke-width="1.50716"/>
<path d="M1770.52 140.173L1714.29 140.173" stroke="#C6C6C6" stroke-width="1.50716"/>
<path d="M1706.62 205.346L1706.62 149.118" stroke="#C6C6C6" stroke-width="1.50716"/>
<path d="M1706.62 131.228L1706.62 74.9998" stroke="#C6C6C6" stroke-width="1.50716"/>
<path d="M1693.85 140.173L1637.62 140.173" stroke="#C6C6C6" stroke-width="1.50716"/>
<path d="M1770.52 287.098L1714.29 287.098" stroke="#C6C6C6" stroke-width="1.50716"/>
<path d="M1706.62 352.271L1706.62 296.043" stroke="#C6C6C6" stroke-width="1.50716"/>
<path d="M1706.62 278.152L1706.62 221.925" stroke="#C6C6C6" stroke-width="1.50716"/>
<path d="M1693.85 287.098L1637.62 287.098" stroke="#C6C6C6" stroke-width="1.50716"/>
<path d="M1770.52 434.022L1714.29 434.022" stroke="#C6C6C6" stroke-width="1.50716"/>
<path d="M1706.62 499.195L1706.62 442.968" stroke="#C6C6C6" stroke-width="1.50716"/>
<path d="M1706.62 425.077L1706.62 368.849" stroke="#C6C6C6" stroke-width="1.50716"/>
<path d="M1693.85 434.022L1637.62 434.022" stroke="#C6C6C6" stroke-width="1.50716"/>
<path d="M1706.62 572.002L1706.62 515.775" stroke="#C6C6C6" stroke-width="1.50716"/>
<path d="M1621.04 140.173L1564.81 140.173" stroke="#C6C6C6" stroke-width="1.50716"/>
<path d="M1557.14 205.346L1557.14 149.118" stroke="#C6C6C6" stroke-width="1.50716"/>
<path d="M1557.14 131.228L1557.14 74.9998" stroke="#C6C6C6" stroke-width="1.50716"/>
<path d="M1544.37 140.173L1488.14 140.173" stroke="#C6C6C6" stroke-width="1.50716"/>
<path d="M1621.04 287.098L1564.81 287.098" stroke="#C6C6C6" stroke-width="1.50716"/>
<path d="M1557.14 352.271L1557.14 296.043" stroke="#C6C6C6" stroke-width="1.50716"/>
<path d="M1557.14 278.152L1557.14 221.925" stroke="#C6C6C6" stroke-width="1.50716"/>
<path d="M1544.37 287.098L1488.14 287.098" stroke="#C6C6C6" stroke-width="1.50716"/>
<path d="M1621.04 434.022L1564.81 434.022" stroke="#C6C6C6" stroke-width="1.50716"/>
<path d="M1557.14 499.195L1557.14 442.968" stroke="#C6C6C6" stroke-width="1.50716"/>
<path d="M1557.14 425.077L1557.14 368.849" stroke="#C6C6C6" stroke-width="1.50716"/>
<path d="M1544.37 434.022L1488.14 434.022" stroke="#C6C6C6" stroke-width="1.50716"/>
<path d="M1557.14 572.002L1557.14 515.774" stroke="#C6C6C6" stroke-width="1.50716"/>
<path d="M1471.56 140.173L1415.33 140.173" stroke="#C6C6C6" stroke-width="1.50716"/>
<path d="M1407.66 205.346L1407.66 149.118" stroke="#C6C6C6" stroke-width="1.50716"/>
<path d="M1407.66 131.228L1407.66 74.9998" stroke="#C6C6C6" stroke-width="1.50716"/>
<path d="M1394.88 140.173L1338.66 140.173" stroke="#C6C6C6" stroke-width="1.50716"/>
<path d="M1471.56 287.098L1415.33 287.098" stroke="#C6C6C6" stroke-width="1.50716"/>
<path d="M1407.66 352.271L1407.66 296.043" stroke="#C6C6C6" stroke-width="1.50716"/>
<path d="M1407.66 278.153L1407.66 221.925" stroke="#C6C6C6" stroke-width="1.50716"/>
<path d="M1394.88 287.098L1338.66 287.098" stroke="#C6C6C6" stroke-width="1.50716"/>
<path d="M1471.56 434.022L1415.33 434.022" stroke="#C6C6C6" stroke-width="1.50716"/>
<path d="M1407.66 499.196L1407.66 442.968" stroke="#C6C6C6" stroke-width="1.50716"/>
<path d="M1407.66 425.077L1407.66 368.849" stroke="#C6C6C6" stroke-width="1.50716"/>
<path d="M1394.88 434.022L1338.66 434.022" stroke="#C6C6C6" stroke-width="1.50716"/>
<path d="M1407.66 572.002L1407.66 515.774" stroke="#C6C6C6" stroke-width="1.50716"/>
<path d="M1322.08 140.173L1265.85 140.173" stroke="#C6C6C6" stroke-width="1.50716"/>
<path d="M1258.18 205.346L1258.18 149.118" stroke="#C6C6C6" stroke-width="1.50716"/>
<path d="M1258.18 131.228L1258.18 74.9998" stroke="#C6C6C6" stroke-width="1.50716"/>
<path d="M1245.4 140.173L1189.18 140.173" stroke="#C6C6C6" stroke-width="1.50716"/>
<path d="M1322.08 287.098L1265.85 287.098" stroke="#C6C6C6" stroke-width="1.50716"/>
<path d="M1258.18 352.271L1258.18 296.043" stroke="#C6C6C6" stroke-width="1.50716"/>
<path d="M1258.18 278.152L1258.18 221.925" stroke="#C6C6C6" stroke-width="1.50716"/>
<path d="M1245.4 287.098L1189.18 287.098" stroke="#C6C6C6" stroke-width="1.50716"/>
<path d="M1322.08 434.022L1265.85 434.022" stroke="#C6C6C6" stroke-width="1.50716"/>
<path d="M1258.18 499.196L1258.18 442.968" stroke="#C6C6C6" stroke-width="1.50716"/>
<path d="M1258.18 425.077L1258.18 368.849" stroke="#C6C6C6" stroke-width="1.50716"/>
<path d="M1245.4 434.022L1189.18 434.022" stroke="#C6C6C6" stroke-width="1.50716"/>
<path d="M1258.18 572.002L1258.18 515.774" stroke="#C6C6C6" stroke-width="1.50716"/>
<path d="M1172.6 140.173L1116.37 140.173" stroke="#C6C6C6" stroke-width="1.50716"/>
<path d="M1108.7 205.346L1108.7 149.118" stroke="#C6C6C6" stroke-width="1.50716"/>
<path d="M1108.7 131.228L1108.7 74.9998" stroke="#C6C6C6" stroke-width="1.50716"/>
<path d="M1095.92 140.173L1039.7 140.173" stroke="#C6C6C6" stroke-width="1.50716"/>
<path d="M1172.6 287.098L1116.37 287.098" stroke="#C6C6C6" stroke-width="1.50716"/>
<path d="M1108.7 352.271L1108.7 296.043" stroke="#C6C6C6" stroke-width="1.50716"/>
<path d="M1108.7 278.152L1108.7 221.925" stroke="#C6C6C6" stroke-width="1.50716"/>
<path d="M1095.92 287.098L1039.7 287.098" stroke="#C6C6C6" stroke-width="1.50716"/>
<path d="M1172.6 434.022L1116.37 434.022" stroke="#C6C6C6" stroke-width="1.50716"/>
<path d="M1108.7 499.196L1108.7 442.968" stroke="#C6C6C6" stroke-width="1.50716"/>
<path d="M1108.7 425.078L1108.7 368.85" stroke="#C6C6C6" stroke-width="1.50716"/>
<path d="M1095.92 434.022L1039.7 434.022" stroke="#C6C6C6" stroke-width="1.50716"/>
<path d="M1108.7 572.002L1108.7 515.774" stroke="#C6C6C6" stroke-width="1.50716"/>
<path d="M1023.12 140.173L966.888 140.173" stroke="#C6C6C6" stroke-width="1.50716"/>
<path d="M959.221 205.346L959.221 149.118" stroke="#C6C6C6" stroke-width="1.50716"/>
<path d="M959.221 131.228L959.221 74.9998" stroke="#C6C6C6" stroke-width="1.50716"/>
<path d="M946.442 140.173L890.215 140.173" stroke="#C6C6C6" stroke-width="1.50716"/>
<path d="M1023.12 287.098L966.888 287.098" stroke="#C6C6C6" stroke-width="1.50716"/>
<path d="M959.221 352.271L959.221 296.043" stroke="#C6C6C6" stroke-width="1.50716"/>
<path d="M959.221 278.152L959.221 221.925" stroke="#C6C6C6" stroke-width="1.50716"/>
<path d="M946.442 287.098L890.215 287.098" stroke="#C6C6C6" stroke-width="1.50716"/>
<path d="M1023.12 434.022L966.888 434.022" stroke="#C6C6C6" stroke-width="1.50716"/>
<path d="M959.221 499.195L959.221 442.968" stroke="#C6C6C6" stroke-width="1.50716"/>
<path d="M959.221 425.077L959.221 368.849" stroke="#C6C6C6" stroke-width="1.50716"/>
<path d="M946.442 434.022L890.215 434.022" stroke="#C6C6C6" stroke-width="1.50716"/>
<path d="M959.221 572.002L959.221 515.775" stroke="#C6C6C6" stroke-width="1.50716"/>
<path d="M873.636 140.173L817.408 140.173" stroke="#C6C6C6" stroke-width="1.50716"/>
<path d="M809.74 205.346L809.74 149.118" stroke="#C6C6C6" stroke-width="1.50716"/>
<path d="M809.74 131.228L809.74 74.9998" stroke="#C6C6C6" stroke-width="1.50716"/>
<path d="M796.962 140.173L740.734 140.173" stroke="#C6C6C6" stroke-width="1.50716"/>
<path d="M873.636 287.098L817.408 287.098" stroke="#C6C6C6" stroke-width="1.50716"/>
<path d="M809.74 352.271L809.74 296.043" stroke="#C6C6C6" stroke-width="1.50716"/>
<path d="M809.74 278.152L809.74 221.925" stroke="#C6C6C6" stroke-width="1.50716"/>
<path d="M796.962 287.098L740.734 287.098" stroke="#C6C6C6" stroke-width="1.50716"/>
<path d="M873.636 434.023L817.408 434.023" stroke="#C6C6C6" stroke-width="1.50716"/>
<path d="M809.74 499.196L809.74 442.968" stroke="#C6C6C6" stroke-width="1.50716"/>
<path d="M809.74 425.077L809.74 368.849" stroke="#C6C6C6" stroke-width="1.50716"/>
<path d="M796.962 434.023L740.734 434.023" stroke="#C6C6C6" stroke-width="1.50716"/>
<path d="M809.74 572.002L809.74 515.774" stroke="#C6C6C6" stroke-width="1.50716"/>
<path d="M724.154 140.173L667.927 140.173" stroke="#C6C6C6" stroke-width="1.50716"/>
<path d="M660.259 205.346L660.259 149.118" stroke="#C6C6C6" stroke-width="1.50716"/>
<path d="M660.259 131.228L660.259 75.0003" stroke="#C6C6C6" stroke-width="1.50716"/>
<path d="M647.48 140.173L591.253 140.173" stroke="#C6C6C6" stroke-width="1.50716"/>
<path d="M724.155 287.098L667.928 287.098" stroke="#C6C6C6" stroke-width="1.50716"/>
<path d="M660.26 352.271L660.26 296.043" stroke="#C6C6C6" stroke-width="1.50716"/>
<path d="M660.26 278.152L660.26 221.925" stroke="#C6C6C6" stroke-width="1.50716"/>
<path d="M647.481 287.098L591.254 287.098" stroke="#C6C6C6" stroke-width="1.50716"/>
<path d="M724.155 434.022L667.928 434.022" stroke="#C6C6C6" stroke-width="1.50716"/>
<path d="M660.26 499.196L660.26 442.968" stroke="#C6C6C6" stroke-width="1.50716"/>
<path d="M660.26 425.077L660.26 368.849" stroke="#C6C6C6" stroke-width="1.50716"/>
<path d="M647.481 434.022L591.254 434.022" stroke="#C6C6C6" stroke-width="1.50716"/>
<path d="M660.26 572.002L660.26 515.774" stroke="#C6C6C6" stroke-width="1.50716"/>
<path d="M574.674 140.173L518.446 140.173" stroke="#C6C6C6" stroke-width="1.50716"/>
<path d="M510.778 205.346L510.778 149.118" stroke="#C6C6C6" stroke-width="1.50716"/>
<path d="M510.778 131.228L510.778 74.9998" stroke="#C6C6C6" stroke-width="1.50716"/>
<path d="M498 140.173L441.772 140.173" stroke="#C6C6C6" stroke-width="1.50716"/>
<path d="M574.674 287.098L518.446 287.098" stroke="#C6C6C6" stroke-width="1.50716"/>
<path d="M510.778 352.271L510.778 296.043" stroke="#C6C6C6" stroke-width="1.50716"/>
<path d="M510.778 278.153L510.778 221.925" stroke="#C6C6C6" stroke-width="1.50716"/>
<path d="M498 287.098L441.772 287.098" stroke="#C6C6C6" stroke-width="1.50716"/>
<path d="M574.674 434.022L518.446 434.022" stroke="#C6C6C6" stroke-width="1.50716"/>
<path d="M510.778 499.196L510.778 442.968" stroke="#C6C6C6" stroke-width="1.50716"/>
<path d="M510.778 425.077L510.778 368.849" stroke="#C6C6C6" stroke-width="1.50716"/>
<path d="M498 434.022L441.772 434.022" stroke="#C6C6C6" stroke-width="1.50716"/>
<path d="M510.778 572.002L510.778 515.774" stroke="#C6C6C6" stroke-width="1.50716"/>
<path d="M425.193 140.173L368.966 140.173" stroke="#C6C6C6" stroke-width="1.50716"/>
<path d="M361.298 205.346L361.298 149.118" stroke="#C6C6C6" stroke-width="1.50716"/>
<path d="M361.298 131.228L361.298 74.9998" stroke="#C6C6C6" stroke-width="1.50716"/>
<path d="M348.52 140.173L292.292 140.173" stroke="#C6C6C6" stroke-width="1.50716"/>
<path d="M425.193 287.098L368.966 287.098" stroke="#C6C6C6" stroke-width="1.50716"/>
<path d="M361.298 352.271L361.298 296.043" stroke="#C6C6C6" stroke-width="1.50716"/>
<path d="M361.298 278.152L361.298 221.925" stroke="#C6C6C6" stroke-width="1.50716"/>
<path d="M348.52 287.098L292.292 287.098" stroke="#C6C6C6" stroke-width="1.50716"/>
<path d="M425.193 434.022L368.966 434.022" stroke="#C6C6C6" stroke-width="1.50716"/>
<path d="M361.298 499.196L361.298 442.968" stroke="#C6C6C6" stroke-width="1.50716"/>
<path d="M361.298 425.078L361.298 368.85" stroke="#C6C6C6" stroke-width="1.50716"/>
<path d="M348.52 434.022L292.292 434.022" stroke="#C6C6C6" stroke-width="1.50716"/>
<path d="M361.298 572.002L361.298 515.774" stroke="#C6C6C6" stroke-width="1.50716"/>
<path d="M275.713 140.173L219.485 140.173" stroke="#C6C6C6" stroke-width="1.50716"/>
<path d="M211.817 205.346L211.817 149.118" stroke="#C6C6C6" stroke-width="1.50716"/>
<path d="M211.817 131.228L211.817 74.9998" stroke="#C6C6C6" stroke-width="1.50716"/>
<path d="M199.039 140.173L142.811 140.173" stroke="#C6C6C6" stroke-width="1.50716"/>
<path d="M275.713 287.098L219.485 287.098" stroke="#C6C6C6" stroke-width="1.50716"/>
<path d="M211.817 352.271L211.817 296.043" stroke="#C6C6C6" stroke-width="1.50716"/>
<path d="M211.817 278.153L211.817 221.925" stroke="#C6C6C6" stroke-width="1.50716"/>
<path d="M199.039 287.098L142.811 287.098" stroke="#C6C6C6" stroke-width="1.50716"/>
<path d="M275.713 434.022L219.485 434.022" stroke="#C6C6C6" stroke-width="1.50716"/>
<path d="M211.817 499.196L211.817 442.968" stroke="#C6C6C6" stroke-width="1.50716"/>
<path d="M211.817 425.077L211.817 368.849" stroke="#C6C6C6" stroke-width="1.50716"/>
<path d="M199.039 434.022L142.811 434.022" stroke="#C6C6C6" stroke-width="1.50716"/>
<path d="M211.817 572.002L211.817 515.774" stroke="#C6C6C6" stroke-width="1.50716"/>
<path d="M125.752 287.173L69.5242 287.173" stroke="#C6C6C6" stroke-width="1.50716"/>
<path d="M61.8564 352.346L61.8564 296.118" stroke="#C6C6C6" stroke-width="1.50716"/>
<path d="M61.8564 278.228L61.8564 222" stroke="#C6C6C6" stroke-width="1.50716"/>
<path d="M49.0771 287.173L-7.15058 287.173" stroke="#C6C6C6" stroke-width="1.50716"/>
<path d="M126.232 140.173L70.0047 140.173" stroke="#C6C6C6" stroke-width="1.50716"/>
<path d="M62.3369 205.346L62.3369 149.118" stroke="#C6C6C6" stroke-width="1.50716"/>
<path d="M62.3369 131.228L62.3369 75.0003" stroke="#C6C6C6" stroke-width="1.50716"/>
<path d="M49.5586 140.173L-6.66914 140.173" stroke="#C6C6C6" stroke-width="1.50716"/>
<path d="M126.232 287.098L70.0047 287.098" stroke="#C6C6C6" stroke-width="1.50716"/>
<path d="M62.3369 352.271L62.3369 296.043" stroke="#C6C6C6" stroke-width="1.50716"/>
<path d="M62.3369 278.152L62.3369 221.925" stroke="#C6C6C6" stroke-width="1.50716"/>
<path d="M49.5586 287.098L-6.66914 287.098" stroke="#C6C6C6" stroke-width="1.50716"/>
<path d="M126.232 434.023L70.0047 434.023" stroke="#C6C6C6" stroke-width="1.50716"/>
<path d="M62.3369 499.196L62.3369 442.968" stroke="#C6C6C6" stroke-width="1.50716"/>
<path d="M62.3369 425.077L62.3369 368.849" stroke="#C6C6C6" stroke-width="1.50716"/>
<path d="M49.5586 434.023L-6.66914 434.023" stroke="#C6C6C6" stroke-width="1.50716"/>
<path d="M62.3369 572.002L62.3369 515.774" stroke="#C6C6C6" stroke-width="1.50716"/>
</g>
</g>
<defs>
<radialGradient id="paint0_radial_62_2663" cx="0" cy="0" r="1" gradientUnits="userSpaceOnUse" gradientTransform="translate(-31.654 -0.000147922) rotate(23.5984) scale(1841.52 5830.76)">
<stop stop-opacity="0"/>
<stop offset="0.0520833" stop-opacity="0.0641903"/>
<stop offset="0.713116" stop-opacity="0.932292"/>
<stop offset="0.9375" stop-opacity="0"/>
</radialGradient>
</defs>
</svg>
