<svg width="175" height="152" viewBox="0 0 175 152" fill="none" xmlns="http://www.w3.org/2000/svg">
<path d="M87.25 1.37998C111.202 1.37998 132.821 5.55468 148.4 12.2496C156.192 15.5981 162.41 19.5498 166.66 23.8676C170.904 28.1794 173.12 32.7824 173.12 37.4939C173.12 42.2054 170.904 46.8084 166.66 51.1202C162.41 55.438 156.192 59.3897 148.4 62.7382C132.821 69.4331 111.202 73.6078 87.25 73.6078C63.298 73.6078 41.6791 69.4331 26.0998 62.7382C18.3077 59.3897 12.0899 55.438 7.84006 51.1202C3.59614 46.8084 1.38 42.2054 1.38 37.4939C1.38 32.7824 3.59614 28.1794 7.84006 23.8676C12.0899 19.5498 18.3077 15.5981 26.0998 12.2496C41.6791 5.55468 63.298 1.37998 87.25 1.37998Z" stroke="#C6C6C6" stroke-width="2.76"/>
<path d="M87.25 41.1568C111.205 41.1568 132.826 45.2612 148.408 51.8436C156.202 55.136 162.419 59.0211 166.668 63.2647C170.912 67.5029 173.12 72.02 173.12 76.6352C173.12 81.2505 170.912 85.7675 166.668 90.0058C162.419 94.2494 156.202 98.1345 148.408 101.427C132.826 108.009 111.205 112.114 87.25 112.114C63.2953 112.114 41.6736 108.009 26.092 101.427C18.2984 98.1345 12.0806 94.2494 7.83175 90.0058C3.58829 85.7675 1.38 81.2505 1.38 76.6352C1.38 72.02 3.58829 67.5029 7.83175 63.2647C12.0806 59.0211 18.2984 55.136 26.092 51.8436C41.6736 45.2612 63.2953 41.1568 87.25 41.1568Z" stroke="#C6C6C6" stroke-width="2.76"/>
<path d="M87.25 79.6632C111.205 79.6632 132.826 83.7676 148.408 90.35C156.202 93.6423 162.419 97.5274 166.668 101.771C170.912 106.009 173.12 110.526 173.12 115.142C173.12 119.757 170.912 124.274 166.668 128.512C162.419 132.756 156.202 136.641 148.408 139.933C132.826 146.516 111.205 150.62 87.25 150.62C63.2953 150.62 41.6736 146.516 26.092 139.933C18.2984 136.641 12.0806 132.756 7.83175 128.512C3.58829 124.274 1.38 119.757 1.38 115.142C1.38 110.526 3.58829 106.009 7.83175 101.771C12.0806 97.5274 18.2984 93.6423 26.092 90.35C41.6736 83.7676 63.2953 79.6632 87.25 79.6632Z" stroke="#C6C6C6" stroke-width="2.76"/>
</svg>
