<svg width="153" height="152" viewBox="0 0 153 152" fill="none" xmlns="http://www.w3.org/2000/svg">
<path fill-rule="evenodd" clip-rule="evenodd" d="M104.361 121.634C102.3 108.057 97.2795 89.999 89.7508 70.7241C82.2222 51.4491 73.6745 34.7691 65.9869 23.3891C62.1299 17.6797 58.5772 13.4362 55.5696 10.8579C54.0638 9.56705 52.8105 8.79485 51.829 8.4202C50.868 8.05336 50.3657 8.13554 50.1194 8.23173C49.8731 8.32792 49.448 8.60799 48.9901 9.52909C48.5223 10.4698 48.1242 11.887 47.892 13.8567C47.4282 17.7909 47.6921 23.319 48.726 30.1311C50.7867 43.7089 55.8073 61.7666 63.336 81.0415C70.8647 100.316 79.4124 116.996 87.1 128.376C90.9569 134.086 94.5097 138.329 97.5172 140.908C99.023 142.199 100.276 142.971 101.258 143.345C102.219 143.712 102.721 143.63 102.967 143.534C103.214 143.438 103.639 143.158 104.097 142.236C104.564 141.296 104.963 139.879 105.195 137.909C105.659 133.975 105.395 128.447 104.361 121.634ZM103.999 146.174C112.751 142.755 107.554 108.514 92.3909 69.6929C77.2278 30.8722 57.8405 2.17307 49.0882 5.59167C40.3359 9.01027 45.5328 43.252 60.6959 82.0727C75.859 120.893 95.2463 149.592 103.999 146.174Z" fill="#F15A2B"/>
<path fill-rule="evenodd" clip-rule="evenodd" d="M128.276 112.31C132.61 96.7186 131.878 77.483 124.885 58.3586C117.892 39.2342 106.043 24.0632 92.6739 14.9454C79.2994 5.82413 64.6212 2.8742 51.6449 7.61906C38.6687 12.3639 29.3555 24.0865 25.0195 39.6837C20.6851 55.275 21.4176 74.5107 28.4106 93.6351C35.4036 112.76 47.2521 127.93 60.6216 137.048C73.996 146.17 88.6743 149.119 101.651 144.375C114.627 139.63 123.94 127.907 128.276 112.31ZM102.624 147.037C130.735 136.758 141.893 96.6194 127.547 57.3853C113.201 18.1511 78.7823 -5.32177 50.6716 4.95713C22.5608 15.236 11.4025 55.3743 25.7487 94.6084C40.0949 133.843 74.5131 157.315 102.624 147.037Z" fill="#F15A2B"/>
<path fill-rule="evenodd" clip-rule="evenodd" d="M76.5928 149.166C117.001 149.166 149.758 116.408 149.758 76C149.758 35.5917 117.001 2.8343 76.5928 2.8343C36.1845 2.8343 3.42708 35.5917 3.42708 76C3.42708 116.408 36.1845 149.166 76.5928 149.166ZM76.5928 152C118.566 152 152.593 117.974 152.593 76C152.593 34.0264 118.566 0 76.5928 0C34.6191 0 0.592773 34.0264 0.592773 76C0.592773 117.974 34.6191 152 76.5928 152Z" fill="#F15A2B"/>
<path fill-rule="evenodd" clip-rule="evenodd" d="M120.918 45.0556C107.199 46.921 89.113 52.0038 69.9643 59.911C50.8155 67.8182 34.4125 76.9771 23.3743 85.3348C17.8379 89.5268 13.7837 93.4183 11.3866 96.7464C8.88397 100.221 8.70721 102.319 9.15918 103.413C9.61114 104.508 11.2165 105.87 15.4415 106.566C19.4884 107.233 25.1071 107.131 31.9882 106.195C45.7073 104.33 63.7934 99.2468 82.9422 91.3397C102.091 83.4325 118.494 74.2736 129.532 65.9158C135.069 61.7239 139.123 57.8323 141.52 54.5043C144.023 51.0297 144.199 48.9319 143.747 47.8374C143.295 46.7428 141.69 45.381 137.465 44.6844C133.418 44.0172 127.799 44.12 120.918 45.0556ZM146.367 46.7556C142.186 36.6299 107.495 41.3469 68.8825 57.2912C30.2702 73.2356 2.35823 94.3694 6.53944 104.495C10.7207 114.621 45.4117 109.904 84.024 93.9594C122.636 78.0151 150.548 56.8812 146.367 46.7556Z" fill="#F15A2B"/>
</svg>
